<svg width="326" height="38" fill="none" xmlns="http://www.w3.org/2000/svg"><path d="M.4 13.9h7V6.7h3v7.2h7v2.9h-7V24h-3v-7.2h-7v-2.9Zm23 15 10-23.5 1.8-2-2.4.4H21.4v-3h16.8V2L26.6 29h-3.2Zm35 8.8a27 27 0 0 1-6.7-18.5 31.8 31.8 0 0 1 3.6-14.4c.9-1.6 2-3 3.2-4.4l2 1.4a24 24 0 0 0-4.4 8.6 29.7 29.7 0 0 0-1 13 35 35 0 0 0 2.8 8.9c.7 1.4 1.5 2.7 2.5 3.9l-2 1.5Zm4.8-15.5c0-1.7.5-3.2 1.4-4.4.8-1.2 2.2-2.4 4-3.4l-1.8-1.2-1.5-1.5a7.3 7.3 0 0 1-1.4-4.3c0-1 .2-2 .5-2.9a6.5 6.5 0 0 1 4-3.6c1-.4 2-.5 3.2-.5a9 9 0 0 1 3 .5c1 .3 1.8.7 2.4 1.3a5.8 5.8 0 0 1 2 4.5c0 1.6-.4 2.9-1 4-.8 1.2-2 2.4-3.5 3.5l2 1.3a8.5 8.5 0 0 1 2.7 3.6 8.6 8.6 0 0 1-.2 5.6 7 7 0 0 1-4.2 4c-1 .4-2.3.6-3.6.6-1.3 0-2.4-.2-3.4-.5-1-.4-1.8-.9-2.5-1.5a6.4 6.4 0 0 1-1.5-2.3c-.4-.9-.6-1.8-.6-2.8Zm13.3-.4c0-.8-.2-1.5-.5-2.1-.3-.6-.7-1.2-1.3-1.6a9 9 0 0 0-1.7-1.4l-2.1-1.2c-1.6 1-2.8 2-3.5 3-.7 1.2-1 2.3-1 3.3 0 .6 0 1.2.3 1.8.2.6.5 1.1 1 1.5.4.5.9.8 1.5 1a6.6 6.6 0 0 0 4.1 0c.6 0 1.2-.4 1.6-.7a4.9 4.9 0 0 0 1.6-3.6ZM67 7.3c0 .7.2 1.4.4 2 .3.6.7 1 1.2 1.5s1 .9 1.7 1.3l2 1c1.2-.9 2.1-1.8 2.7-2.7.6-.9.8-1.9.8-3 0-1.3-.4-2.4-1.2-3.1a4.3 4.3 0 0 0-3-1.1 4.8 4.8 0 0 0-3.4 1.3A3.8 3.8 0 0 0 67 7.3Zm19.6 18.6h5.6V6.5l.4-2.3L91 6l-4.4 3.1-1.5-2L94 .4h1.5v25.5h5.4v3H86.6v-3ZM122 7.2a13 13 0 0 1-.8 4.4 43.4 43.4 0 0 1-8 12.9l-2 1.7v.1l2.6-.4h8.7v3h-15.9v-1.2a129.4 129.4 0 0 0 4.7-5.3 60.2 60.2 0 0 0 5-7.3c.7-1.3 1.3-2.6 1.7-3.8.4-1.3.6-2.4.6-3.6 0-1.3-.3-2.4-1-3.2-.8-.9-2-1.3-3.5-1.3-1 0-2 .2-3 .6-.9.4-1.7.9-2.4 1.4L107.4 3a12.3 12.3 0 0 1 7.4-2.6c1.1 0 2.2.2 3 .6a6 6 0 0 1 3.7 3.6c.3.8.5 1.7.5 2.7Zm6-6.8c1.3 1.3 2.3 2.7 3.2 4.2a28.3 28.3 0 0 1 3.6 14.3 31.8 31.8 0 0 1-3.7 14.4c-.9 1.5-2 3-3.2 4.4l-2-1.4a24 24 0 0 0 4.5-8.7 33.5 33.5 0 0 0 .8-12.8 31.3 31.3 0 0 0-2.7-9c-.7-1.5-1.5-2.8-2.5-4l2-1.4Zm22.5 21.8c0-1.7.4-3.2 1.3-4.4 1-1.2 2.3-2.4 4.1-3.4l-1.8-1.2-1.6-1.5-1-2a7.5 7.5 0 0 1 .2-5.2 6.5 6.5 0 0 1 4-3.6c1-.4 2-.5 3.2-.5a9 9 0 0 1 3 .5c1 .3 1.7.7 2.3 1.3a5.8 5.8 0 0 1 2 4.5c0 1.6-.3 2.9-1 4-.7 1.2-1.9 2.4-3.5 3.5l2 1.3a8.5 8.5 0 0 1 2.8 3.6 8.7 8.7 0 0 1-.2 5.6 7 7 0 0 1-4.3 4c-1 .4-2.2.6-3.5.6-1.3 0-2.4-.2-3.4-.5-1-.4-1.9-.9-2.6-1.5A6.4 6.4 0 0 1 151 25c-.3-.9-.5-1.8-.5-2.8Zm13.2-.4c0-.8-.1-1.5-.4-2.1-.4-.6-.8-1.2-1.3-1.6a9 9 0 0 0-1.8-1.4l-2-1.2c-1.7 1-2.8 2-3.5 3-.7 1.2-1 2.3-1 3.3 0 .6 0 1.2.2 1.8.3.6.6 1.1 1 1.5.4.5 1 .8 1.6 1a6.6 6.6 0 0 0 4.1 0c.6 0 1.1-.4 1.6-.7.5-.4.8-1 1.1-1.5.3-.6.4-1.3.4-2.1Zm-9.4-14.5c0 .7.1 1.4.4 2 .3.6.7 1 1.2 1.5s1 .9 1.7 1.3l2 1c1.2-.9 2-1.8 2.6-2.7.6-.9 1-1.9 1-3 0-1.3-.5-2.4-1.4-3.1a4.3 4.3 0 0 0-3-1.1 4.8 4.8 0 0 0-3.3 1.3 3.8 3.8 0 0 0-1.2 2.8Zm19.6 18.6h5.6V6.5l.4-2.3-1.6 1.9-4.4 3.1-1.5-2 8.8-6.8h1.4v25.5h5.5v3H174v-3Zm35.3-18.7a13 13 0 0 1-.8 4.4 43.5 43.5 0 0 1-8 12.9l-1.9 1.7v.1l2.6-.4h8.7v3h-16v-1.2a137.5 137.5 0 0 0 4.7-5.3 61.1 61.1 0 0 0 5-7.3c.8-1.3 1.3-2.6 1.8-3.8.4-1.3.6-2.4.6-3.6 0-1.3-.4-2.4-1.1-3.2-.8-.9-1.9-1.3-3.4-1.3-1 0-2 .2-3 .6-1 .4-1.8.9-2.5 1.4L194.6 3A12.3 12.3 0 0 1 202 .3c1.2 0 2.2.2 3.1.6a6 6 0 0 1 3.6 3.6c.4.8.5 1.7.5 2.7Zm6.3 8.7h9.7v3h-9.7v-3Zm16.4 10h5.6V6.5l.4-2.3-1.6 1.9-4.4 3.1-1.5-2 8.8-6.8h1.4v25.5h5.5v3H232v-3Zm35.3-18.7a13 13 0 0 1-.8 4.4 43.5 43.5 0 0 1-8 12.9l-1.9 1.7v.1l2.6-.4h8.7v3h-16v-1.2a137.5 137.5 0 0 0 4.8-5.3 61.1 61.1 0 0 0 5-7.3c.7-1.3 1.2-2.6 1.7-3.8.4-1.3.6-2.4.6-3.6 0-1.3-.4-2.4-1.1-3.2-.8-.9-1.9-1.3-3.4-1.3-1 0-2 .2-3 .6-1 .4-1.8.9-2.4 1.4L252.6 3c1-.8 2-1.4 3.4-1.8 1.2-.5 2.6-.7 4-.7 1.2 0 2.2.1 3.1.5a6 6 0 0 1 3.7 3.6c.3.8.4 1.7.4 2.7Zm6.3 8.7h9.7v3h-9.7v-3Zm16.4 10h5.6V6.5l.4-2.3-1.6 1.9-4.4 3.1-1.5-2 8.8-6.8h1.4v25.5h5.5v3H290v-3Zm35.3-18.7a13 13 0 0 1-.8 4.4 43.4 43.4 0 0 1-8 12.9l-1.9 1.7v.1l2.6-.4h8.7v3h-16v-1.2a129.4 129.4 0 0 0 4.8-5.3 60.2 60.2 0 0 0 5-7.3c.7-1.3 1.3-2.6 1.7-3.8.4-1.3.6-2.4.6-3.6 0-1.3-.4-2.4-1.1-3.2-.7-.9-1.9-1.3-3.4-1.3-1 0-2 .2-3 .6-1 .4-1.7.9-2.4 1.4L310.6 3c1-.8 2-1.4 3.4-1.8 1.2-.5 2.6-.7 4-.7 1.2 0 2.2.1 3.1.5a6 6 0 0 1 3.7 3.6c.3.8.4 1.7.4 2.7Z" fill="#000"/></svg>